<svg width="208" height="44" viewBox="0 0 208 44" fill="none" xmlns="http://www.w3.org/2000/svg">
<g clip-path="url(#clip0_103_474)">
<path d="M61.5397 10.3644C59.0027 9.09586 56.3389 8.58846 53.4213 8.58846C50.6306 8.58846 48.0936 9.09586 45.6835 10.1107C43.2734 11.1255 41.2438 12.394 39.341 14.1699C37.5651 15.9457 36.1698 17.9753 35.155 20.2586C34.1402 22.5419 33.6328 24.9521 33.6328 27.3622C33.6328 30.6603 34.3939 33.451 35.9161 35.988C37.4383 38.525 39.5947 40.4278 42.2586 41.8231C44.9224 43.2185 47.7131 43.8527 50.8843 43.8527C53.5482 43.8527 55.9583 43.3453 58.2416 42.4561C60.5249 41.5694 62.5545 40.1728 64.3304 38.5237C66.1063 36.8747 67.3748 34.8451 68.3896 32.435C69.4044 30.0248 69.9118 27.6147 69.9118 24.824C69.9118 21.2722 69.1507 18.2278 67.6285 15.8176C66.1063 13.4088 64.0767 11.6329 61.5397 10.3644ZM57.7342 29.1381C57.1 30.6603 56.212 31.802 55.0704 32.8168C53.9287 33.7047 52.6602 34.2121 51.138 34.2121C49.3621 34.2121 47.8399 33.5779 46.8251 32.3094C45.6835 31.0409 45.1761 29.5187 45.1761 27.6159C45.1761 26.3474 45.4298 24.9521 45.9372 23.4299C46.4446 21.9077 47.3325 20.6392 48.4742 19.6244C49.6158 18.6096 51.0112 18.1022 52.7871 18.1022C54.563 18.1022 55.9583 18.7364 56.9731 19.8781C58.1148 21.0197 58.6222 22.6688 58.6222 24.6984C58.6222 26.2206 58.3685 27.7428 57.7342 29.1381ZM205.768 9.34956C204.88 9.22271 204.119 9.09586 203.231 8.96901C202.343 8.84216 201.456 8.84216 200.694 8.71531C199.806 8.58846 199.045 8.58846 198.411 8.58846C194.986 8.58846 193.21 8.84216 190.292 9.34956C187.375 9.85696 184.838 10.4912 182.681 10.9986L177.607 43.0916H189.152L193.211 17.2155C193.717 17.0887 196 16.7081 196.763 16.7081C198.412 16.7081 199.806 16.835 201.203 17.0887C202.598 17.3424 203.74 17.5961 204.754 17.7229L207.926 9.85823C207.29 9.60326 206.656 9.47641 205.768 9.34956ZM138.664 0.596924L119.764 43.0916H130.292L150.208 0.596924H138.664ZM35.7892 9.09586H5.09157L3.94992 16.9605H18.2839L0.0175781 43.0916H30.8421L31.9837 34.9732H17.7765L35.7892 9.09586ZM122.174 13.4088H110.631L117.988 43.0916L124.584 27.8696L122.174 13.4088ZM169.108 10.2375C166.952 9.09586 164.54 8.58846 161.878 8.58846C158.326 8.58846 155.155 9.47641 152.364 11.2523C149.573 13.0282 147.29 15.3115 145.768 18.3559C144.119 21.2734 143.358 24.5715 143.358 27.9965C143.358 30.2798 143.865 32.6899 144.754 35.1001C145.769 37.5102 147.545 39.5398 150.209 41.1889C152.873 42.9648 156.551 43.7259 161.118 43.7259C163.275 43.7259 165.052 43.599 166.574 43.2197C167.969 42.8392 169.872 42.2049 172.282 41.317L173.931 32.9449C171.394 33.9597 169.238 34.7208 167.461 35.2282C165.686 35.7343 163.655 35.9893 161.246 35.9893C156.678 35.9893 154.269 33.5791 154.269 28.8857H175.834C176.088 27.1098 176.34 25.4608 176.34 23.9386C176.34 20.5136 175.706 17.7229 174.31 15.3128C173.151 13.1175 171.332 11.3421 169.108 10.2375ZM165.683 22.5419V23.0493H155.282C156.043 21.0197 156.931 19.3707 157.819 18.1022C158.707 16.8337 159.975 16.1994 161.624 16.1994C164.288 16.1994 165.557 18.1022 165.557 21.9077C165.683 22.2882 165.683 22.4151 165.683 22.5419ZM100.99 10.3644C98.453 9.09586 95.7892 8.58846 92.8716 8.58846C90.0809 8.58846 87.5439 9.09586 85.1338 10.1107C82.7236 11.1255 80.694 12.394 78.7913 14.1699C77.0154 15.9457 75.6201 17.9753 74.6053 20.2586C73.5905 22.5419 73.0831 24.9521 73.0831 27.3622C73.0831 30.6603 73.8442 33.451 75.3663 35.988C76.8885 38.525 79.045 40.4278 81.7088 41.8231C84.3727 43.2197 87.1634 43.854 90.3346 43.854C92.9985 43.854 95.4086 43.3466 97.6919 42.4574C99.9752 41.5707 102.005 40.1741 103.781 38.525C105.555 36.876 106.824 34.8464 107.839 32.4362C108.855 30.0261 109.361 27.6159 109.361 24.8252C109.361 21.2734 108.6 18.229 107.078 15.8189C105.555 13.4088 103.527 11.6329 100.99 10.3644ZM97.1845 29.1381C96.5503 30.6603 95.6623 31.802 94.5207 32.8168C93.379 33.7047 92.1105 34.2121 90.5883 34.2121C88.8124 34.2121 87.2902 33.5779 86.2754 32.3094C85.1338 31.0409 84.6264 29.5187 84.6264 27.6159C84.6264 26.3474 84.8801 24.9521 85.3875 23.4299C85.8949 21.9077 86.7828 20.6392 87.9245 19.6244C89.0661 18.6096 90.4615 18.1022 92.3642 18.1022C94.1401 18.1022 95.5355 18.7364 96.5503 19.8781C97.6919 21.0197 98.1993 22.6688 98.1993 24.6984C98.0725 26.2206 97.8188 27.7428 97.1845 29.1381Z" fill="#767676"/>
</g>
<defs>
<clipPath id="clip0_103_474">
<rect width="207.96" height="43.2558" fill="white" transform="translate(-0.00830078 0.596924)"/>
</clipPath>
</defs>
</svg>
