<svg width="231" height="49" viewBox="0 0 231 49" fill="none" xmlns="http://www.w3.org/2000/svg">
<g clip-path="url(#clip0_103_465)">
<path d="M221.211 38.5791C222.083 38.5791 222.597 38.4369 222.92 38.1496C223.171 37.8872 223.297 37.278 223.297 36.2864V15.9672C223.297 14.9275 223.183 14.2376 222.967 13.8936C222.68 13.4574 222.071 13.2393 221.15 13.2393H220.447V11.7729L228.62 11.1397V36.297C228.62 37.5884 228.965 38.3168 229.66 38.4724C229.933 38.5435 230.341 38.5791 230.867 38.5791V40.1578H221.211V38.5791ZM208.388 31.2657C209.141 30.6267 210.491 30.1193 212.44 29.735V32.6282C212.44 34.2656 212.189 35.5081 211.699 36.3565C211.067 37.4923 210.242 38.0535 209.214 38.0535C208.604 38.0535 208.09 37.7921 207.672 37.254C207.253 36.7149 207.04 35.9385 207.04 34.9113C207.039 33.2375 207.494 32.0306 208.388 31.2657ZM204.917 23.5314C205.079 23.1038 205.498 22.6945 206.179 22.3063C206.963 21.8648 207.849 21.6344 208.749 21.6375C211.21 21.6375 212.441 22.7637 212.441 25.0218V28.1284C208.797 28.8385 206.191 29.6581 204.602 30.5844C202.535 31.7788 201.496 33.4527 201.496 35.6041C201.496 36.8706 201.884 37.9824 202.667 38.926C203.688 40.1463 205.202 40.7536 207.209 40.7536C208.351 40.7536 209.443 40.4307 210.483 39.7735C211.452 39.1748 212.18 38.4109 212.67 37.4779V38.434C212.698 39.2469 212.698 39.8321 212.67 40.155H219.736V38.5772H219.467C218.333 38.5772 217.766 37.7988 217.766 36.2345V26.8081C217.766 22.2592 215.189 19.9819 210.053 19.9819C207.973 19.9819 206.229 20.421 204.813 21.2993C203.396 22.1746 202.691 23.321 202.691 24.747C202.691 25.729 203.014 26.5064 203.672 27.0714C204.221 27.5415 204.922 27.7954 205.644 27.7853C206.474 27.7853 207.161 27.5249 207.711 27.0051C208.266 26.491 208.546 25.9096 208.546 25.2735C208.546 23.6967 207.703 22.9049 206.038 22.9049C205.405 22.9049 204.892 23.1077 204.507 23.5084L204.92 23.6688C204.924 23.5795 204.924 23.5314 204.917 23.5314ZM68.125 28.0015C71.3459 28.0015 73.9201 27.3712 75.8564 26.1191C78.0434 24.7191 79.1311 22.6512 79.1311 19.905C79.1311 17.0521 78.0261 14.9275 75.815 13.5266C73.9336 12.3283 71.3882 11.7278 68.173 11.7278H57.4657V13.2786C58.738 13.2786 59.5269 13.3709 59.8315 13.5477C60.3513 13.8408 60.6136 14.6383 60.6136 15.9471V36.1538C60.6136 37.1445 60.3984 37.8152 59.9621 38.1611C59.6037 38.4359 58.9349 38.5676 57.9481 38.5676H57.4648V40.1463H70.2044V38.5676H68.8783C67.8569 38.5676 67.1631 38.4119 66.7932 38.0775C66.4232 37.7546 66.2378 37.1214 66.2378 36.1538V28.0015H68.125ZM73.2869 19.9261C73.2869 24.1089 71.5784 26.1998 68.1721 26.1998H66.38V13.3805H68.1721C71.5784 13.3805 73.2869 15.5646 73.2869 19.9261ZM87.2382 24.3386C87.979 21.4319 89.5501 19.9771 91.9639 19.9771C92.8479 19.9771 93.5532 20.2163 94.0856 20.6997C94.6169 21.183 94.886 21.8201 94.886 22.6176C94.8903 23.2979 94.6506 23.9573 94.2105 24.476C93.6964 25.0737 93.0516 25.3773 92.2743 25.3773C91.5334 25.3773 90.9425 25.1477 90.5062 24.6941C90.0882 24.2963 89.9028 23.8072 89.9383 23.2268C89.9383 23.173 89.9681 23.0356 90.0162 22.8175C89.2868 23.7351 88.7141 25.3062 88.2836 27.5172C87.9368 29.2891 87.758 30.914 87.758 32.3784V36.2854C87.758 37.205 87.8657 37.8027 88.0684 38.0775C88.3192 38.4119 89.0005 38.5676 90.0997 38.5676H90.7628V40.1463H80.0449V38.5676H80.4456C81.1807 38.5676 81.7121 38.4359 82.0349 38.1736C82.3568 37.9218 82.5125 37.2771 82.5125 36.2854V27.7651C82.5125 24.8286 82.4347 23.1942 82.2732 22.8684C82.0465 22.3399 81.6045 22.0766 80.9472 22.0766H80.386V20.5027H87.1017L87.2382 24.3386ZM109.482 37.0138C109.398 37.0628 109.315 37.1339 109.207 37.1944L109.482 37.0397C109.148 37.9593 108.532 38.7838 107.624 39.4891C106.595 40.3117 105.314 40.7555 103.997 40.7459C101.727 40.7459 100.126 40.1242 99.1937 38.8693C98.4528 37.8882 98.0762 36.3479 98.0762 34.256V26.0269C98.0762 24.1743 97.9926 23.0933 97.8311 22.7829C97.6044 22.3678 97.072 22.1525 96.2245 22.1525H96.0573V20.5065H103.478V34.9498C103.478 36.861 104.273 37.8181 105.862 37.8181C107.177 37.8181 108.067 36.91 108.527 35.0574C108.73 34.3165 108.826 33.3009 108.826 32.0094V26.0346C108.826 23.9907 108.731 22.8646 108.533 22.6464C108.246 22.3207 107.649 22.1506 106.734 22.1506H106.173V20.5046H114.275V35.2467C114.275 36.86 114.371 37.8036 114.568 38.0554C114.819 38.4013 115.303 38.5685 116.014 38.5685H116.522V40.1463H109.328L109.208 36.9801L109.328 37.0628L109.364 37.1483L109.482 37.0138ZM125.418 20.0539C122.77 20.0539 120.632 21.1897 119.006 23.4507C117.573 25.4648 116.856 27.7651 116.856 30.3576C116.856 33.2019 117.382 35.5081 118.457 37.2896C119.819 39.5948 121.928 40.743 124.791 40.743C126.26 40.743 127.538 40.2885 128.627 39.3805C129.475 38.6521 130.031 37.8507 130.288 36.9782L130.151 37.0858L129.99 36.9311L130.127 40.1463H137.171V38.5906H136.819C136.012 38.5906 135.479 38.3754 135.224 37.9574C135.021 37.6585 134.924 37.0974 134.924 36.296V11.131L126.679 11.7614V13.2316H127.217C128.257 13.2316 128.926 13.515 129.232 14.0772C129.412 14.4087 129.52 15.1582 129.555 16.3295C129.555 19.4899 129.609 21.3387 129.717 21.8652C128.953 20.6545 127.513 20.0539 125.418 20.0539ZM129.598 28.2312V32.2112C129.598 33.298 129.516 34.206 129.354 34.9229C128.864 37.0983 127.825 38.1966 126.248 38.1966C124.037 38.1966 122.926 35.5792 122.926 30.3576C122.926 28.0342 123.059 26.3219 123.307 25.213C123.814 23.0712 124.824 21.9998 126.33 21.9998C128.507 21.9988 129.598 24.0782 129.598 28.2312ZM143.173 29.8743H155.129C155.11 26.9205 154.448 24.5894 153.146 22.8867C151.677 20.9476 149.501 19.9771 146.622 19.9771C143.974 19.9771 141.783 20.9303 140.037 22.8329C138.28 24.7931 137.409 27.2905 137.409 30.3221C137.409 33.4412 138.173 35.9145 139.714 37.7441C141.364 39.7523 143.71 40.743 146.751 40.743C149.111 40.743 151.1 39.8715 152.714 38.138C154.125 36.6198 154.859 34.9949 154.913 33.2509H152.924C152.905 34.5404 152.416 35.7492 151.455 36.8725C150.366 38.163 149.071 38.7962 147.559 38.7962C145.402 38.7962 144.04 37.255 143.479 34.1714C143.277 33.1423 143.173 31.7202 143.173 29.8743ZM146.563 21.4761C148.629 21.4761 149.669 23.7255 149.669 28.2245H143.173C143.192 27.523 143.222 26.9397 143.258 26.4718C143.531 23.1432 144.633 21.4761 146.563 21.4761ZM162.903 23.0596C163.352 22.1487 164.069 21.4107 165.047 20.8371C166.028 20.2634 167.114 19.9761 168.315 19.9761C172.253 19.9761 174.223 22.1151 174.223 26.3959V35.3418C174.223 36.3325 174.23 36.9292 174.247 37.1339C174.318 38.089 174.928 38.5666 176.057 38.5666H176.469V40.1444H168.821V25.7069C168.821 24.7085 168.703 23.9917 168.463 23.5554C168.118 22.9193 167.466 22.5994 166.504 22.5994C165.597 22.5994 164.867 23.0414 164.318 23.9321C163.776 24.8258 163.499 26.1393 163.499 27.8785V35.2813C163.499 36.9427 163.576 37.8738 163.743 38.0535C164.072 38.4004 164.657 38.5676 165.494 38.5676H165.822V40.1463H155.857V38.5676H156.389C157.406 38.5676 157.949 38.0909 158.027 37.1339C158.062 36.9081 158.08 36.2614 158.08 35.1977V25.3715C158.08 23.8447 157.967 22.9155 157.74 22.5811C157.52 22.2438 157.041 22.0766 156.313 22.0766H155.86V20.5027H162.903V23.0596ZM183.882 40.7421C180.614 40.7421 178.971 38.8885 178.971 35.1852V22.1487H175.458V20.5738H175.997C177.921 20.5738 179.545 19.4928 180.884 17.3173C182.031 15.4926 182.618 13.6246 182.653 11.7278H184.302V20.5738H188.054V22.1487H184.302V35.8424C184.302 37.4568 184.8 38.2687 185.797 38.2687C186.675 38.2687 187.244 37.5029 187.499 35.9731C187.589 35.4235 187.637 34.3233 187.637 32.6869H189.477C189.477 35.3889 189.232 37.2386 188.747 38.2072C187.932 39.9051 186.307 40.7421 183.882 40.7421ZM24.8317 1.54993C10.9909 1.54993 1.94888 12.926 1.94888 23.5161C1.94888 29.5985 3.43059 32.6273 5.05547 35.5302C7.10506 30.0233 11.2014 19.0671 11.2014 19.0671C11.2014 19.0671 13.1097 18.0812 13.1097 18.2253L15.8608 11.2319L17.6298 10.3143L19.8225 5.65104L24.6174 6.42841L34.3677 11.8652L45.3133 14.9045C42.493 7.7016 34.5108 1.54993 24.8317 1.54993ZM24.6876 48.4494C18.6858 48.4494 11.3426 46.3345 6.04327 39.834H43.2694C38.956 45.4149 31.5465 48.4494 24.6876 48.4494ZM32.0375 38.7107H28.6436L34.9413 30.866L35.5746 32.0661L32.0375 38.7107ZM35.3593 13.7716L24.5569 7.48924L20.599 6.78106V9.67624L23.6373 12.5051L19.3978 12.1467C19.3978 12.1467 19.5352 12.362 23.0637 16.1046L39.1712 18.7875L41.9914 20.6247L34.654 20.9774L31.6185 32.0661L21.6559 38.7107H15.1555L17.3482 34.3973L16.9927 34.255L11.1283 38.7127H9.7187L15.7205 30.299C16.0039 27.9006 15.8608 28.9595 16.2163 24.648L15.2986 23.3796L12.8964 32.7003L7.88051 38.7117H6.60732L9.57361 34.5395L13.741 21.7576L12.6802 22.2477L10.843 27.3347L9.57361 28.039C9.57361 28.039 6.60732 35.2448 5.05354 38.7693C2.7964 35.533 0.250977 31.1523 0.250977 23.517C0.250977 12.0746 10.0704 0 24.8317 0C39.028 0 46.5922 11.3011 47.8587 17.1597L35.3593 13.7716ZM42.3498 30.2981L40.2945 32.0661L36.2078 38.7107H33.5192L36.2078 33.9658L38.3227 32.2093L41.3697 23.6621L44.608 25.0035L42.3498 30.2981ZM44.2611 38.7107H38.8243L43.9747 30.5844L45.5285 25.2851L48.7782 26.417C48.4919 30.5133 47.1534 34.6721 44.2611 38.7107ZM37.6174 28.9595L35.9925 29.2478L36.423 25.9932L35.9925 25.3571L36.423 21.6827L40.5818 23.3796L37.6174 28.9595ZM190.782 38.5791H191.302C192.078 38.5791 192.567 38.3273 192.764 37.8507C192.89 37.5038 192.949 36.6429 192.949 35.2573V24.9862C192.949 23.5939 192.816 22.7781 192.529 22.5302C192.255 22.2851 191.842 22.1631 191.3 22.1631H190.78V20.5882H198.278V35.2563C198.278 36.8706 198.374 37.8142 198.577 38.0881C198.828 38.4225 199.294 38.5781 199.999 38.5781H200.538V40.1569H190.782V38.5791ZM192.21 15.0861C192.21 14.1992 192.521 13.4487 193.149 12.8241C193.444 12.5224 193.798 12.2839 194.188 12.1231C194.578 11.9624 194.997 11.8828 195.419 11.8892C195.843 11.8831 196.263 11.9627 196.656 12.1234C197.048 12.2841 197.403 12.5224 197.701 12.8241C198.341 13.4487 198.658 14.1982 198.658 15.0861C198.658 15.9759 198.341 16.7379 197.701 17.374C197.069 18.0188 196.31 18.3387 195.419 18.3387C194.529 18.3387 193.777 18.0188 193.149 17.374C192.846 17.0763 192.606 16.72 192.444 16.3267C192.283 15.9333 192.203 15.5113 192.21 15.0861Z" fill="#767676"/>
</g>
<defs>
<clipPath id="clip0_103_465">
<rect width="230.712" height="48.4494" fill="white" transform="translate(0.202148)"/>
</clipPath>
</defs>
</svg>
