<svg width="179" height="46" viewBox="0 0 179 46" fill="none" xmlns="http://www.w3.org/2000/svg">
<g clip-path="url(#clip0_103_454)">
<path fill-rule="evenodd" clip-rule="evenodd" d="M57.665 36.1137L59.877 30.9738C62.2662 32.7604 65.4494 33.6891 68.5901 33.6891C70.9083 33.6891 72.3759 32.7958 72.3759 31.4417C72.3404 27.6559 58.4874 30.6193 58.3811 21.1264C58.3456 16.3055 62.6277 12.5905 68.6964 12.5905C72.305 12.5905 75.9065 13.4838 78.48 15.5185L76.4098 20.7648C74.0561 19.2618 71.1281 18.1913 68.3419 18.1913C66.449 18.1913 65.2012 19.0846 65.2012 20.226C65.2367 23.9409 79.196 21.9062 79.3378 30.9738C79.3378 35.901 75.1621 39.3678 69.1643 39.3678C64.7688 39.3607 60.7348 38.3257 57.665 36.1137ZM142.605 29.1163C141.499 31.0447 139.429 32.3633 137.033 32.3633C133.495 32.3633 130.645 29.5062 130.645 25.9756C130.645 22.445 133.502 19.5879 137.033 19.5879C139.422 19.5879 141.499 20.9066 142.605 22.835L148.709 19.4462C146.426 15.3767 142.031 12.5905 137.033 12.5905C129.638 12.5905 123.641 18.5883 123.641 25.9827C123.641 33.3772 129.638 39.3749 137.033 39.3749C142.066 39.3749 146.426 36.6242 148.709 32.5193L142.605 29.1163ZM82.4076 1.4812H90.0502V38.8645H82.4076V1.4812ZM151.708 1.4812V38.8645H159.351V27.6488L168.418 38.8645H178.202L166.667 25.5432L177.344 13.1152H167.986L159.344 23.4305V1.4812H151.708Z" fill="#767676"/>
<path d="M112.759 29.187C111.653 31.009 109.37 32.3631 106.797 32.3631C103.259 32.3631 100.409 29.506 100.409 25.9754C100.409 22.4448 103.266 19.5877 106.797 19.5877C109.37 19.5877 111.653 21.0127 112.759 22.8702V29.187ZM112.759 13.1221V16.1564C111.511 14.0508 108.406 12.5833 105.152 12.5833C98.438 12.5833 93.1562 18.5101 93.1562 25.94C93.1562 33.3699 98.438 39.3676 105.152 39.3676C108.399 39.3676 111.504 37.9072 112.759 35.7945V38.8288H120.401V13.1221H112.759Z" fill="#767676"/>
<path fill-rule="evenodd" clip-rule="evenodd" d="M10.4286 29.1518C10.4286 31.7608 8.32303 33.8664 5.71407 33.8664C3.10511 33.8664 0.999512 31.7537 0.999512 29.1518C0.999512 26.5499 3.10511 24.4373 5.71407 24.4373H10.4286V29.1518ZM12.7824 29.1518C12.7824 26.5429 14.888 24.4373 17.4969 24.4373C20.1059 24.4373 22.2115 26.5429 22.2115 29.1518V40.9347C22.2115 43.5437 20.1059 45.6493 17.4969 45.6493C14.888 45.6493 12.7824 43.5437 12.7824 40.9347V29.1518Z" fill="#767676"/>
<path fill-rule="evenodd" clip-rule="evenodd" d="M17.4962 10.2297C14.8873 10.2297 12.7817 8.12406 12.7817 5.5151C12.7817 2.90614 14.8873 0.800537 17.4962 0.800537C20.1052 0.800537 22.2108 2.90614 22.2108 5.5151V10.2297H17.4962ZM17.4962 12.6188C20.1052 12.6188 22.2108 14.7244 22.2108 17.3334C22.2108 19.9424 20.1052 22.048 17.4962 22.048H5.67794C3.06898 22.048 0.963379 19.9353 0.963379 17.3334C0.963379 14.7315 3.06898 12.6188 5.67794 12.6188H17.4962Z" fill="#767676"/>
<path fill-rule="evenodd" clip-rule="evenodd" d="M36.383 17.3334C36.383 14.7244 38.4886 12.6188 41.0975 12.6188C43.7065 12.6188 45.8121 14.7244 45.8121 17.3334C45.8121 19.9424 43.7065 22.048 41.0975 22.048H36.383V17.3334ZM34.0292 17.3334C34.0292 19.9424 31.9236 22.048 29.3147 22.048C26.7057 22.048 24.6001 19.9424 24.6001 17.3334V5.5151C24.6001 2.90614 26.7057 0.800537 29.3147 0.800537C31.9236 0.800537 34.0292 2.90614 34.0292 5.5151V17.3334Z" fill="#767676"/>
<path fill-rule="evenodd" clip-rule="evenodd" d="M29.3147 36.2201C31.9236 36.2201 34.0292 38.3257 34.0292 40.9347C34.0292 43.5437 31.9236 45.6493 29.3147 45.6493C26.7057 45.6493 24.6001 43.5437 24.6001 40.9347V36.2201H29.3147ZM29.3147 33.8664C26.7057 33.8664 24.6001 31.7608 24.6001 29.1518C24.6001 26.5429 26.7057 24.4373 29.3147 24.4373H41.1329C43.7419 24.4373 45.8475 26.5429 45.8475 29.1518C45.8475 31.7608 43.7419 33.8664 41.1329 33.8664H29.3147Z" fill="#767676"/>
</g>
<defs>
<clipPath id="clip0_103_454">
<rect width="177.239" height="44.8486" fill="white" transform="translate(0.963379 0.800537)"/>
</clipPath>
</defs>
</svg>
