<svg width="105" height="43" viewBox="0 0 105 43" fill="none" xmlns="http://www.w3.org/2000/svg">
<path d="M58.2169 9.39697C48.8694 9.39697 41.7979 16.6841 41.7979 25.7114C41.7979 35.2281 49.1674 42.0258 58.2169 42.0258C67.2663 42.0258 74.6088 35.2281 74.6088 25.7114C74.6088 16.6841 67.5644 9.39697 58.2169 9.39697ZM58.2169 18.0164C62.2539 17.9892 65.5594 21.4424 65.5594 25.7114C65.5594 29.9531 62.2539 33.4063 58.2169 33.4063C54.1799 33.4063 50.8744 29.9531 50.8744 25.7114C50.8744 21.4424 54.1799 18.0164 58.2169 18.0164Z" fill="#767676"/>
<path d="M104.992 36.3145C104.992 39.4687 102.445 42.0246 99.3021 42.0246C96.1592 42.0246 93.6123 39.4687 93.6123 36.3145C93.6123 33.1604 96.1592 30.6045 99.3021 30.6045C102.445 30.6045 104.992 33.1604 104.992 36.3145Z" fill="#767676"/>
<path d="M88.4259 40.938H79.4849V0.423828H88.4259V40.938Z" fill="#767676"/>
<path fill-rule="evenodd" clip-rule="evenodd" d="M0.914062 40.9384L17.1705 0.424316H25.5697L41.5552 40.9384H30.1757L28.2791 35.2284H14.1902L12.2936 40.9384H0.914062ZM25.5697 26.7993H17.1705L21.3701 13.2039L25.5697 26.7993Z" fill="#767676"/>
</svg>
