<svg width="116" height="119" viewBox="0 0 116 119" fill="none" xmlns="http://www.w3.org/2000/svg">
<path d="M102.018 96.9317L96.0144 36.4283C95.8143 34.3529 94.853 32.4274 93.3186 31.0286C91.7841 29.6298 89.7869 28.8585 87.7179 28.8654H14.3975C12.3285 28.8585 10.3313 29.6298 8.79683 31.0286C7.26237 32.4274 6.30105 34.3529 6.10101 36.4283L0.097525 96.9317C-0.174382 99.6582 0.123818 102.412 0.972888 105.015C1.82196 107.618 3.20304 110.013 5.02706 112.046C6.85108 114.078 9.07753 115.702 11.5628 116.814C14.048 117.926 16.7369 118.5 19.456 118.5H82.6594C85.3785 118.5 88.0673 117.926 90.5526 116.814C93.0379 115.702 95.2643 114.078 97.0883 112.046C98.9124 110.013 100.293 107.618 101.143 105.015C101.992 102.412 102.29 99.6582 102.018 96.9317Z" fill="#A995FF"/>
<path d="M28.8265 45.315C31.9203 45.315 34.4284 42.807 34.4284 39.7131C34.4284 36.6193 31.9203 34.1112 28.8265 34.1112C25.7327 34.1112 23.2246 36.6193 23.2246 39.7131C23.2246 42.807 25.7327 45.315 28.8265 45.315Z" fill="#A995FF"/>
<path d="M73.6414 45.315C76.7353 45.315 79.2433 42.807 79.2433 39.7131C79.2433 36.6193 76.7353 34.1112 73.6414 34.1112C70.5476 34.1112 68.0396 36.6193 68.0396 39.7131C68.0396 42.807 70.5476 45.315 73.6414 45.315Z" fill="#A995FF"/>
<path d="M73.6414 42.5141C72.8985 42.5141 72.1861 42.219 71.6608 41.6937C71.1355 41.1685 70.8404 40.456 70.8404 39.7132V25.7085C70.8404 20.5085 68.7748 15.5215 65.0978 11.8445C61.4209 8.16757 56.4338 6.10188 51.2339 6.10188C46.0339 6.10188 41.0469 8.16757 37.3699 11.8445C33.693 15.5215 31.6273 20.5085 31.6273 25.7085V39.7132C31.6273 40.456 31.3322 41.1685 30.8069 41.6937C30.2816 42.219 29.5692 42.5141 28.8263 42.5141C28.0835 42.5141 27.371 42.219 26.8458 41.6937C26.3205 41.1685 26.0254 40.456 26.0254 39.7132V25.7085C26.0254 19.0228 28.6813 12.6109 33.4088 7.88339C38.1363 3.15588 44.5482 0.5 51.2339 0.5C57.9196 0.5 64.3314 3.15588 69.0589 7.88339C73.7864 12.6109 76.4423 19.0228 76.4423 25.7085V39.7132C76.4423 40.456 76.1472 41.1685 75.6219 41.6937C75.0967 42.219 74.3842 42.5141 73.6414 42.5141Z" fill="#A995FF"/>
<path d="M84.8455 118.139C101.862 118.139 115.656 104.345 115.656 87.3291C115.656 70.3131 101.862 56.5188 84.8455 56.5188C67.8294 56.5188 54.0352 70.3131 54.0352 87.3291C54.0352 104.345 67.8294 118.139 84.8455 118.139Z" fill="white"/>
<path d="M82.6115 98.0769C81.8713 98.0768 81.1614 97.7923 80.6381 97.2862L72.2645 89.1896C71.756 88.6806 71.4747 87.9988 71.4811 87.2912C71.4874 86.5836 71.781 85.9067 72.2985 85.4063C72.816 84.9059 73.5161 84.622 74.2479 84.6159C74.9798 84.6097 75.6848 84.8818 76.2112 85.3734L82.6115 91.5619L97.3853 77.2768C97.9117 76.7852 98.6168 76.5132 99.3486 76.5193C100.08 76.5255 100.781 76.8093 101.298 77.3097C101.816 77.8101 102.109 78.487 102.115 79.1946C102.122 79.9023 101.84 80.584 101.332 81.093L84.5848 97.2862C84.0615 97.7923 83.3517 98.0768 82.6115 98.0769Z" fill="#D86113"/>
</svg>
