<svg width="158" height="127" viewBox="0 0 158 127" fill="none" xmlns="http://www.w3.org/2000/svg">
<path d="M151.151 126.441H6.0974C2.56733 126.441 0 123.553 0 120.343V6.0974C0 2.56732 2.88824 0 6.0974 0H150.509C154.04 0 156.607 2.88824 156.607 6.0974V120.022C157.249 123.873 154.36 126.441 151.151 126.441Z" fill="#A995FF"/>
<path d="M3.53027 120.023V37.8681C3.53027 36.2635 4.81394 34.9799 6.41851 34.9799H150.189C151.793 34.9799 153.077 36.2635 153.077 37.8681V119.702C153.077 121.306 151.793 122.59 150.189 122.59H7.06035C5.13485 122.911 3.53027 121.627 3.53027 120.023Z" fill="white"/>
<path d="M150.509 0H7.38095C3.52996 0 0.320801 3.20916 0.320801 7.06014V17.0085H30.166C32.7333 17.0085 34.6588 15.083 34.6588 12.5157V8.66472C34.6588 6.0974 36.5843 4.1719 39.1516 4.1719H72.2059C74.7732 4.1719 76.6987 6.0974 76.6987 8.66472V12.5157C76.6987 15.083 78.6242 17.0085 81.1915 17.0085H157.249V6.0974C157.249 2.88824 154.36 0 150.509 0Z" fill="#333353"/>
<path d="M8.98541 11.553C10.5805 11.553 11.8736 10.2599 11.8736 8.66479C11.8736 7.06966 10.5805 5.77655 8.98541 5.77655C7.39028 5.77655 6.09717 7.06966 6.09717 8.66479C6.09717 10.2599 7.39028 11.553 8.98541 11.553Z" fill="#E24C5B"/>
<path d="M17.3296 11.553C18.9248 11.553 20.2179 10.2599 20.2179 8.66479C20.2179 7.06966 18.9248 5.77655 17.3296 5.77655C15.7345 5.77655 14.4414 7.06966 14.4414 8.66479C14.4414 10.2599 15.7345 11.553 17.3296 11.553Z" fill="#FCB924"/>
<path d="M25.6734 11.553C27.2685 11.553 28.5616 10.2599 28.5616 8.66479C28.5616 7.06966 27.2685 5.77655 25.6734 5.77655C24.0783 5.77655 22.7852 7.06966 22.7852 8.66479C22.7852 10.2599 24.0783 11.553 25.6734 11.553Z" fill="#84D357"/>
<path d="M147.79 22H43.1719C40.9255 22 39 23.9255 39 26.1719C39 28.4183 40.9255 30.3438 43.1719 30.3438H148.111C150.358 30.3438 152.283 28.4183 152.283 26.1719C152.283 24.2464 150.037 22 147.79 22Z" fill="white"/>
<path d="M23.4268 25.9942L19.8968 29.2033L18.934 28.2406L20.8595 26.3151H16.3667V25.3524H20.8595L18.934 23.4269L19.8968 22.4641L23.4268 25.9942Z" fill="white"/>
<path d="M5.45557 25.9942L8.98564 22.4641L9.62747 23.4269L7.70198 25.3524H12.1948V26.3151H7.70198L9.62747 28.2406L8.98564 29.2033L5.45557 25.9942Z" fill="white"/>
<path d="M34.0172 25.9942H32.7335C32.7335 26.636 32.4126 27.2778 32.0917 27.5988C31.1289 28.5615 29.8453 28.5615 28.8825 27.5988C27.9198 26.636 27.9198 25.3523 28.8825 24.3896C29.8453 23.4269 31.1289 23.4269 32.0917 24.3896L33.0544 23.4269C31.7708 22.1432 29.2034 22.1432 27.9198 23.4269C26.6361 24.7105 26.6361 27.2778 27.9198 28.5615C29.2034 29.8452 31.4499 29.8452 33.0544 28.5615C33.6963 27.9197 34.0172 26.9569 34.0172 25.9942Z" fill="white"/>
<path d="M113.925 66.7505H43.3236C41.0772 66.7505 39.4727 68.3551 39.4727 70.6015C39.4727 72.8479 41.0772 74.4525 43.3236 74.4525H113.925C116.172 74.4525 117.776 72.8479 117.776 70.6015C117.776 68.3551 116.172 66.7505 113.925 66.7505Z" fill="#D9E5FC"/>
<path d="M117.776 70.6015C117.776 72.8479 115.851 74.4525 113.925 74.4525H107.186V66.7505H113.925C116.172 66.7505 117.776 68.3551 117.776 70.6015Z" fill="#BBD0EF"/>
<path d="M84.0798 90.8192C85.8521 90.8192 87.2889 89.3824 87.2889 87.61C87.2889 85.8377 85.8521 84.4009 84.0798 84.4009C82.3074 84.4009 80.8706 85.8377 80.8706 87.61C80.8706 89.3824 82.3074 90.8192 84.0798 90.8192Z" fill="#FF6193"/>
<path d="M94.9909 90.8192C96.7633 90.8192 98.2001 89.3824 98.2001 87.61C98.2001 85.8377 96.7633 84.4009 94.9909 84.4009C93.2185 84.4009 91.7817 85.8377 91.7817 87.61C91.7817 89.3824 93.2185 90.8192 94.9909 90.8192Z" fill="#24A5FC"/>
<path d="M73.1686 90.8192C74.941 90.8192 76.3778 89.3824 76.3778 87.61C76.3778 85.8377 74.941 84.4009 73.1686 84.4009C71.3963 84.4009 69.9595 85.8377 69.9595 87.61C69.9595 89.3824 71.3963 90.8192 73.1686 90.8192Z" fill="#84D357"/>
<path d="M62.2575 90.8192C64.0299 90.8192 65.4667 89.3824 65.4667 87.61C65.4667 85.8377 64.0299 84.4009 62.2575 84.4009C60.4851 84.4009 59.0483 85.8377 59.0483 87.61C59.0483 89.3824 60.4851 90.8192 62.2575 90.8192Z" fill="#E24C5B"/>
</svg>
