<svg width="118" height="118" viewBox="0 0 118 118" fill="none" xmlns="http://www.w3.org/2000/svg">
<path d="M115.913 49.0752C115.256 48.4997 114.484 48.0707 113.649 47.8163C112.813 47.562 111.933 47.4883 111.067 47.6001C110.602 47.6521 110.135 47.5362 109.748 47.2734C109.362 47.0106 109.082 46.6183 108.96 46.1672C107.76 41.4489 105.887 36.9282 103.397 32.7448C103.16 32.3392 103.078 31.8612 103.167 31.3999C103.257 30.9385 103.51 30.5253 103.881 30.2373C104.568 29.6979 105.133 29.0192 105.539 28.2459C105.945 27.4725 106.183 26.622 106.237 25.7503C106.29 24.8785 106.159 24.0053 105.851 23.188C105.543 22.3706 105.066 21.6277 104.45 21.008L96.9912 13.5277C96.3676 12.9182 95.6229 12.4466 94.8053 12.1435C93.9877 11.8403 93.1155 11.7124 92.2453 11.7681C91.3751 11.8237 90.5263 12.0616 89.7539 12.4664C88.9816 12.8712 88.3029 13.4338 87.762 14.1177C87.4739 14.4889 87.0607 14.7427 86.5994 14.8319C86.1381 14.921 85.6601 14.8395 85.2544 14.6024C81.071 12.1124 76.5504 10.2389 71.832 9.03954C71.3875 8.92774 70.9981 8.6597 70.735 8.2844C70.4719 7.90911 70.3527 7.45166 70.3991 6.99569C70.5125 6.12465 70.4394 5.23947 70.1847 4.39884C69.9299 3.55822 69.4993 2.78136 68.9215 2.11982C68.3436 1.45827 67.6317 0.927149 66.833 0.561681C66.0342 0.196213 65.1669 0.00475247 64.2885 0H53.7107C52.8323 0.00474269 51.965 0.196202 51.1662 0.561678C50.3675 0.927153 49.6556 1.45829 49.0777 2.11986C48.4999 2.78143 48.0693 3.5583 47.8145 4.39895C47.5598 5.2396 47.4867 6.12481 47.6001 6.99585C47.6466 7.45183 47.5273 7.90928 47.2642 8.28457C47.0011 8.65986 46.6117 8.92791 46.1672 9.03971C41.4489 10.239 36.9282 12.1126 32.7448 14.6026C32.3405 14.8447 31.8611 14.9291 31.3984 14.8397C30.9357 14.7502 30.5222 14.4932 30.2373 14.1179C29.698 13.4308 29.0194 12.8656 28.246 12.4596C27.4727 12.0536 26.6221 11.8159 25.7503 11.7621C24.8785 11.7084 24.0052 11.8399 23.1878 12.1479C22.3705 12.4558 21.6276 12.9334 21.008 13.5491L13.5488 21.0081C12.9331 21.6277 12.4556 22.3706 12.1476 23.188C11.8397 24.0054 11.7082 24.8787 11.762 25.7505C11.8158 26.6223 12.0535 27.4728 12.4595 28.2462C12.8656 29.0195 13.4308 29.6981 14.1179 30.2374C14.489 30.5255 14.7428 30.9387 14.8319 31.4C14.921 31.8613 14.8395 32.3393 14.6024 32.7449C12.1124 36.9283 10.2388 41.449 9.03952 46.1673C8.92087 46.6206 8.64202 47.0155 8.2546 47.2789C7.86719 47.5423 7.39744 47.6565 6.93232 47.6002C6.06566 47.4937 5.18625 47.572 4.35207 47.8301C3.5179 48.0882 2.74791 48.5202 2.09287 49.0976C1.43783 49.675 0.91262 50.3847 0.551873 51.1799C0.191126 51.9751 0.0030349 52.8377 0 53.7109V64.2887C0.00303644 65.1619 0.191132 66.0245 0.551885 66.8197C0.912638 67.6149 1.43785 68.3246 2.0929 68.902C2.74795 69.4794 3.51795 69.9114 4.35214 70.1695C5.18632 70.4276 6.06574 70.5059 6.93241 70.3993C7.39685 70.3474 7.86456 70.4633 8.25102 70.7261C8.63748 70.9888 8.91719 71.3812 9.0396 71.8322C10.2389 76.5506 12.1125 81.0712 14.6025 85.2546C14.8396 85.6603 14.9211 86.1383 14.832 86.5996C14.7428 87.0609 14.489 87.4741 14.1178 87.7622C13.4309 88.3016 12.8659 88.9803 12.46 89.7536C12.054 90.5269 11.8164 91.3774 11.7627 92.2492C11.7089 93.1209 11.8403 93.9942 12.1482 94.8115C12.456 95.6288 12.9334 96.3718 13.5489 96.9914L21.008 104.472C21.6309 105.083 22.3755 105.555 23.1933 105.859C24.011 106.163 24.8837 106.292 25.7543 106.236C26.625 106.18 27.4742 105.942 28.2466 105.536C29.019 105.131 29.6973 104.567 30.2373 103.882C30.5223 103.506 30.9357 103.249 31.3985 103.16C31.8612 103.071 32.3406 103.155 32.7449 103.397C36.9283 105.887 41.4489 107.761 46.1673 108.96C46.6227 109.072 47.0198 109.351 47.2809 109.74C47.5421 110.13 47.6484 110.603 47.5791 111.067C47.4705 111.936 47.5481 112.818 47.8067 113.654C48.0654 114.491 48.4991 115.263 49.0792 115.918C49.6592 116.574 50.3722 117.099 51.1708 117.458C51.9694 117.817 52.8353 118.001 53.7108 118H64.2886C65.1622 118.008 66.0269 117.824 66.821 117.46C67.6151 117.095 68.3189 116.56 68.8821 115.893C64.5213 112.779 60.9671 108.669 58.5151 103.904C56.0632 99.1394 54.7845 93.8583 54.7855 88.4998C54.7855 88.1627 54.7855 87.8255 54.8065 87.4884C47.9707 86.478 41.7253 83.0457 37.2079 77.8167C32.6906 72.5876 30.2019 65.9099 30.1952 58.9998C31.7124 22.2303 82.1781 20.8606 87.4037 54.8066C87.7619 54.7855 88.1412 54.7855 88.4995 54.7855C93.8579 54.7846 99.1391 56.0633 103.904 58.5152C108.668 60.9671 112.778 64.5213 115.892 68.8821C116.562 68.3203 117.098 67.6168 117.462 66.8224C117.827 66.028 118.01 65.1626 117.999 64.2886V53.7109C117.999 52.8347 117.813 51.9685 117.453 51.1695C117.094 50.3704 116.569 49.6566 115.913 49.0752Z" fill="#A995FF"/>
<path d="M88.4993 58.9998C82.6648 58.9998 76.9613 60.7299 72.1101 63.9714C67.2589 67.2129 63.4778 71.8201 61.2451 77.2105C59.0123 82.6009 58.4281 88.5323 59.5664 94.2547C60.7046 99.9771 63.5142 105.233 67.6398 109.359C71.7654 113.485 77.0218 116.294 82.7442 117.433C88.4666 118.571 94.3981 117.987 99.7884 115.754C105.179 113.521 109.786 109.74 113.028 104.889C116.269 100.038 117.999 94.3341 117.999 88.4996C117.991 80.6784 114.88 73.18 109.349 67.6495C103.819 62.1191 96.3206 59.0083 88.4993 58.9998ZM81.609 86.3924H95.3897C96.1204 86.3918 96.8441 86.5352 97.5193 86.8145C98.1945 87.0938 98.808 87.5035 99.3247 88.0202C99.8414 88.5369 100.251 89.1504 100.53 89.8257C100.81 90.5009 100.953 91.2246 100.952 91.9553V98.8455C100.95 100.32 100.364 101.734 99.3208 102.777C98.278 103.819 96.8644 104.406 95.3897 104.408H90.6065V107.464C90.6022 108.02 90.3783 108.552 89.9836 108.943C89.5889 109.335 89.0554 109.555 88.4993 109.555C87.9433 109.555 87.4098 109.335 87.0151 108.943C86.6204 108.552 86.3965 108.02 86.3922 107.464V104.408H81.609C80.1343 104.406 78.7207 103.819 77.6779 102.777C76.6352 101.734 76.0484 100.32 76.0463 98.8455C76.0439 98.5673 76.0967 98.2914 76.2016 98.0337C76.3064 97.776 76.4613 97.5417 76.6572 97.3441C76.8531 97.1466 77.0861 96.9898 77.3429 96.8828C77.5997 96.7758 77.8752 96.7207 78.1534 96.7207C78.4316 96.7207 78.7071 96.7758 78.9639 96.8828C79.2207 96.9898 79.4537 97.1466 79.6496 97.3441C79.8455 97.5417 80.0004 97.776 80.1052 98.0337C80.2101 98.2914 80.2628 98.5673 80.2605 98.8455C80.263 99.2024 80.4058 99.544 80.6582 99.7964C80.9105 100.049 81.2521 100.192 81.609 100.194H95.3897C95.7466 100.192 96.0882 100.049 96.3405 99.7964C96.5929 99.544 96.7357 99.2024 96.7382 98.8455V91.9553C96.7357 91.5984 96.5929 91.2568 96.3405 91.0044C96.0882 90.752 95.7466 90.6092 95.3897 90.6067H81.609C80.8783 90.6074 80.1546 90.464 79.4794 90.1846C78.8042 89.9053 78.1907 89.4956 77.674 88.9789C77.1573 88.4622 76.7476 87.8487 76.4683 87.1735C76.189 86.4982 76.0456 85.7745 76.0463 85.0438V78.1535C76.0485 76.6788 76.6352 75.2652 77.678 74.2225C78.7207 73.1797 80.1343 72.593 81.609 72.5908H86.3922V69.5353C86.3901 69.2573 86.443 68.9815 86.5479 68.724C86.6528 68.4664 86.8077 68.2322 87.0036 68.0348C87.1995 67.8374 87.4325 67.6807 87.6892 67.5738C87.9459 67.4669 88.2213 67.4118 88.4993 67.4118C88.7774 67.4118 89.0528 67.4669 89.3095 67.5738C89.5662 67.6807 89.7992 67.8374 89.9951 68.0348C90.191 68.2322 90.3459 68.4664 90.4508 68.724C90.5557 68.9815 90.6086 69.2573 90.6065 69.5353V72.5908H95.3897C96.8644 72.593 98.278 73.1797 99.3207 74.2225C100.363 75.2652 100.95 76.6789 100.952 78.1535C100.955 78.4317 100.902 78.7076 100.797 78.9653C100.692 79.223 100.537 79.4574 100.342 79.6549C100.146 79.8524 99.9126 80.0092 99.6558 80.1162C99.399 80.2232 99.1235 80.2783 98.8453 80.2783C98.5671 80.2783 98.2916 80.2232 98.0348 80.1162C97.778 80.0092 97.545 79.8524 97.3491 79.6549C97.1532 79.4574 96.9983 79.223 96.8935 78.9653C96.7886 78.7076 96.7359 78.4317 96.7382 78.1535C96.7357 77.7966 96.5928 77.4551 96.3405 77.2027C96.0881 76.9504 95.7466 76.8075 95.3897 76.805H81.609C81.2521 76.8075 80.9106 76.9504 80.6582 77.2027C80.4059 77.4551 80.263 77.7966 80.2605 78.1535V85.0439C80.263 85.4007 80.4059 85.7423 80.6582 85.9947C80.9106 86.2471 81.2521 86.3899 81.609 86.3924Z" fill="#D86113"/>
</svg>
