<svg width="119" height="118" viewBox="0 0 119 118" fill="none" xmlns="http://www.w3.org/2000/svg">
<path d="M51.522 29.0944C51.8934 32.5863 51.4283 36.1165 50.1651 39.3931C48.902 42.6697 46.877 45.5985 44.2577 47.9375C40.8793 50.8388 38.3338 54.587 36.8827 58.7972C36.772 59.0922 38.3945 59 22.1327 59C20.6449 54.631 18.0386 50.7279 14.5733 47.6794C11.9122 45.2674 9.87837 42.2438 8.64736 38.8698C7.41635 35.4959 7.0252 31.8729 7.50771 28.314C7.99021 24.755 9.33186 21.367 11.4168 18.4426C13.5017 15.5182 16.2672 13.1453 19.4744 11.5289C22.6816 9.91246 26.2341 9.10109 29.825 9.16487C33.416 9.22864 36.9374 10.1656 40.0852 11.8949C43.233 13.6242 45.9125 16.0938 47.8922 19.0904C49.872 22.087 51.0925 25.5205 51.4483 29.0944H51.522Z" fill="white"/>
<path d="M27.6637 65.0659L20.2887 41.0971C20.203 40.8151 20.1861 40.5167 20.2395 40.2268C20.2929 39.9369 20.415 39.6641 20.5955 39.4311C20.7761 39.1982 21.0099 39.0119 21.2774 38.8879C21.5448 38.764 21.838 38.706 22.1325 38.7187H36.8825C37.177 38.706 37.4702 38.764 37.7376 38.8879C38.005 39.0119 38.2389 39.1982 38.4194 39.4311C38.6 39.6641 38.7221 39.9369 38.7755 40.2268C38.8289 40.5167 38.812 40.8151 38.7262 41.0971L31.3512 65.0659C31.3512 65.5549 31.157 66.0239 30.8112 66.3696C30.4654 66.7154 29.9965 66.9096 29.5075 66.9096C29.0185 66.9096 28.5495 66.7154 28.2038 66.3696C27.858 66.0239 27.6637 65.5549 27.6637 65.0659ZM24.6216 42.4062L29.5075 58.2625L34.3934 42.4062H24.6216Z" fill="#7B60ED"/>
<path d="M103.257 25.8125V62.6875H66.3823V18.4375C66.3823 17.4595 66.7708 16.5216 67.4624 15.83C68.1539 15.1385 69.0918 14.75 70.0698 14.75H92.1948L103.257 25.8125Z" fill="white"/>
<path d="M88.5074 51.754V47.8084C88.5098 47.3404 88.4194 46.8766 88.2415 46.4438C88.0635 46.011 87.8015 45.6177 87.4706 45.2868C87.1397 44.9559 86.7464 44.6938 86.3136 44.5159C85.8807 44.3379 85.4169 44.2475 84.9489 44.25C84.2102 44.2459 83.4913 44.0109 82.8928 43.5778C82.2944 43.1446 81.8464 42.5351 81.6117 41.8347C81.3164 41.0123 80.978 40.2061 80.5977 39.4194C80.2709 38.7555 80.1593 38.0062 80.2782 37.2759C80.3972 36.5456 80.7409 35.8705 81.2614 35.3447C81.9246 34.6749 82.2966 33.7705 82.2966 32.828C82.2966 31.8854 81.9246 30.981 81.2614 30.3112L78.4774 27.5272C77.8076 26.864 76.9032 26.492 75.9607 26.492C75.0181 26.492 74.1137 26.864 73.4439 27.5272C72.9181 28.0477 72.243 28.3914 71.5127 28.5104C70.7824 28.6293 70.0331 28.5177 69.3692 28.1909C68.5825 27.8106 67.7763 27.4722 66.9539 27.1769C66.2535 26.9422 65.644 26.4942 65.2109 25.8958C64.7777 25.2973 64.5427 24.5784 64.5386 23.8397C64.5338 22.8974 64.1573 21.9951 63.491 21.3288C62.8247 20.6625 61.9224 20.2861 60.9802 20.2812H57.0346C56.5666 20.2788 56.1027 20.3692 55.6699 20.5471C55.2371 20.7251 54.8438 20.9871 54.5129 21.318C54.182 21.6489 53.92 22.0422 53.742 22.475C53.564 22.9079 53.4737 23.3717 53.4761 23.8397C53.4721 24.5784 53.237 25.2973 52.8039 25.8958C52.3708 26.4942 51.7613 26.9422 51.0608 27.1769C50.2384 27.4722 49.4322 27.8106 48.6455 28.1909C47.9816 28.5177 47.2324 28.6293 46.5021 28.5104C45.7717 28.3914 45.0967 28.0477 44.5708 27.5272C43.9011 26.864 42.9966 26.492 42.0541 26.492C41.1116 26.492 40.2071 26.864 39.5374 27.5272L36.7533 30.3112C36.0901 30.981 35.7181 31.8854 35.7181 32.828C35.7181 33.7705 36.0901 34.6749 36.7533 35.3447C37.2739 35.8705 37.6175 36.5456 37.7365 37.2759C37.8555 38.0062 37.7438 38.7555 37.4171 39.4194C37.0368 40.2061 36.6983 41.0123 36.403 41.8347C36.1683 42.5351 35.7204 43.1446 35.1219 43.5778C34.5235 44.0109 33.8045 44.2459 33.0658 44.25C32.1235 44.2548 31.2213 44.6313 30.555 45.2976C29.8887 45.9639 29.5122 46.8662 29.5074 47.8084V51.754C29.5049 52.222 29.5953 52.6859 29.7733 53.1187C29.9512 53.5515 30.2132 53.9448 30.5442 54.2757C30.8751 54.6066 31.2683 54.8686 31.7012 55.0466C32.134 55.2246 32.5978 55.3149 33.0658 55.3125C33.8045 55.3165 34.5235 55.5516 35.1219 55.9847C35.7204 56.4178 36.1683 57.0273 36.403 57.7278C36.6983 58.5502 37.0368 59.3564 37.4171 60.1431C37.7438 60.807 37.8555 61.5562 37.7365 62.2866C37.6175 63.0169 37.2739 63.6919 36.7533 64.2178C36.0901 64.8876 35.7181 65.792 35.7181 66.7345C35.7181 67.677 36.0901 68.5815 36.7533 69.2512L39.5374 72.0353C40.2071 72.6985 41.1116 73.0705 42.0541 73.0705C42.9966 73.0705 43.9011 72.6985 44.5708 72.0353C45.0967 71.5148 45.7717 71.1711 46.5021 71.0521C47.2324 70.9332 47.9816 71.0448 48.6455 71.3715C49.4322 71.7518 50.2384 72.0903 51.0608 72.3856C51.7613 72.6203 52.3708 73.0683 52.8039 73.6667C53.237 74.2651 53.4721 74.9841 53.4761 75.7228C53.481 76.6651 53.8574 77.5674 54.5237 78.2336C55.19 78.8999 56.0923 79.2764 57.0346 79.2812H60.9802C61.4482 79.2837 61.912 79.1933 62.3448 79.0153C62.7777 78.8374 63.1709 78.5754 63.5018 78.2444C63.8327 77.9135 64.0948 77.5203 64.2727 77.0874C64.4507 76.6546 64.5411 76.1908 64.5386 75.7228C64.5427 74.9841 64.7777 74.2651 65.2109 73.6667C65.644 73.0683 66.2535 72.6203 66.9539 72.3856C67.7763 72.0903 68.5825 71.7518 69.3692 71.3715C70.0331 71.0448 70.7824 70.9332 71.5127 71.0521C72.243 71.1711 72.9181 71.5148 73.4439 72.0353C74.1268 72.673 75.0263 73.0277 75.9607 73.0277C76.895 73.0277 77.7945 72.673 78.4774 72.0353L81.2614 69.2512C81.9246 68.5815 82.2966 67.677 82.2966 66.7345C82.2966 65.792 81.9246 64.8876 81.2614 64.2178C80.7409 63.6919 80.3972 63.0169 80.2782 62.2866C80.1593 61.5562 80.2709 60.807 80.5977 60.1431C80.978 59.3564 81.3164 58.5502 81.6117 57.7278C81.8464 57.0273 82.2944 56.4178 82.8928 55.9847C83.4913 55.5516 84.2102 55.3165 84.9489 55.3125C85.8912 55.3076 86.7935 54.9312 87.4598 54.2649C88.1261 53.5986 88.5025 52.6963 88.5074 51.754Z" fill="#D86113"/>
<path d="M59.0073 62.6875C66.1353 62.6875 71.9136 56.9092 71.9136 49.7812C71.9136 42.6533 66.1353 36.875 59.0073 36.875C51.8794 36.875 46.1011 42.6533 46.1011 49.7812C46.1011 56.9092 51.8794 62.6875 59.0073 62.6875Z" fill="#F3F3F3"/>
<path d="M11.0698 55.3125H59.0073V118H14.7573C13.7793 118 12.8414 117.611 12.1499 116.92C11.4583 116.228 11.0698 115.29 11.0698 114.312V55.3125Z" fill="#9981FC"/>
<path d="M59.0073 55.3125H106.945V114.312C106.945 115.29 106.556 116.228 105.865 116.92C105.173 117.611 104.235 118 103.257 118H59.0073V55.3125Z" fill="#A995FF"/>
<path d="M11.07 55.3125L2.60717 65.1766C2.37807 65.4444 2.23055 65.7723 2.18207 66.1214C2.1336 66.4705 2.1862 66.8262 2.33366 67.1464C2.48111 67.4665 2.71724 67.7376 3.01406 67.9277C3.31088 68.1178 3.65596 68.2188 4.00842 68.2188H43.0406C44.0094 68.2195 44.9688 68.0294 45.8641 67.6593C46.7594 67.2891 47.573 66.7462 48.2584 66.0616L59.0075 55.3125H11.07Z" fill="#7B60ED"/>
<path d="M106.945 55.3125L115.408 65.1766C115.637 65.4444 115.784 65.7723 115.833 66.1214C115.881 66.4705 115.829 66.8262 115.681 67.1464C115.534 67.4665 115.298 67.7376 115.001 67.9277C114.704 68.1178 114.359 68.2188 114.006 68.2188H74.9742C74.0054 68.2195 73.046 68.0294 72.1507 67.6593C71.2554 67.2891 70.4418 66.7462 69.7564 66.0616L59.0073 55.3125H106.945Z" fill="#9981FC"/>
<path d="M29.5073 105.094H18.4448C17.4265 105.094 16.6011 105.919 16.6011 106.938V110.625C16.6011 111.643 17.4265 112.469 18.4448 112.469H29.5073C30.5256 112.469 31.3511 111.643 31.3511 110.625V106.938C31.3511 105.919 30.5256 105.094 29.5073 105.094Z" fill="#F3F3F3"/>
<path d="M68.2261 112.469C70.2626 112.469 71.9136 110.818 71.9136 108.781C71.9136 106.745 70.2626 105.094 68.2261 105.094C66.1895 105.094 64.5386 106.745 64.5386 108.781C64.5386 110.818 66.1895 112.469 68.2261 112.469Z" fill="#F3F3F3"/>
<path d="M81.1323 112.469C83.1689 112.469 84.8198 110.818 84.8198 108.781C84.8198 106.745 83.1689 105.094 81.1323 105.094C79.0958 105.094 77.4448 106.745 77.4448 108.781C77.4448 110.818 79.0958 112.469 81.1323 112.469Z" fill="#F3F3F3"/>
<path d="M103.257 25.8125H95.8823C94.9043 25.8125 93.9664 25.424 93.2749 24.7325C92.5833 24.0409 92.1948 23.103 92.1948 22.125V14.75L103.257 25.8125Z" fill="#7B60ED"/>
<path d="M108.789 51.625C108.422 51.6271 108.064 51.5201 107.759 51.3177C107.453 51.1152 107.215 50.8265 107.075 50.4883C106.935 50.15 106.898 49.7777 106.97 49.4186C107.042 49.0595 107.219 48.7301 107.479 48.4722L114.854 41.0972C115.202 40.75 115.673 40.5549 116.164 40.5549C116.655 40.5549 117.125 40.75 117.473 41.0972C117.82 41.4443 118.015 41.9152 118.015 42.4062C118.015 42.8972 117.82 43.3681 117.473 43.7153L110.098 51.0903C109.925 51.2612 109.721 51.3964 109.496 51.4881C109.272 51.5799 109.031 51.6264 108.789 51.625Z" fill="#D86113"/>
<path d="M108.789 40.5625C108.422 40.5646 108.064 40.4576 107.759 40.2552C107.453 40.0527 107.215 39.764 107.075 39.4258C106.935 39.0875 106.898 38.7152 106.97 38.3561C107.042 37.997 107.219 37.6676 107.479 37.4097L111.167 33.7222C111.514 33.375 111.985 33.1799 112.476 33.1799C112.967 33.1799 113.438 33.375 113.785 33.7222C114.132 34.0693 114.327 34.5402 114.327 35.0312C114.327 35.5222 114.132 35.9931 113.785 36.3403C109.766 40.3597 109.784 40.5625 108.789 40.5625Z" fill="#D86113"/>
<path d="M9.22629 51.625C8.98364 51.6264 8.7431 51.5799 8.51847 51.4881C8.29383 51.3964 8.08951 51.2612 7.91723 51.0903L0.542231 43.7153C0.195046 43.3681 0 42.8972 0 42.4062C0 41.9152 0.195046 41.4443 0.542231 41.0972C0.889416 40.75 1.3603 40.5549 1.85129 40.5549C2.34229 40.5549 2.81317 40.75 3.16036 41.0972L10.5354 48.4722C10.7954 48.7301 10.9727 49.0595 11.0447 49.4186C11.1168 49.7777 11.0803 50.15 10.9398 50.4883C10.7994 50.8265 10.5614 51.1152 10.2562 51.3177C9.95106 51.5201 9.59251 51.6271 9.22629 51.625Z" fill="#D86113"/>
<path d="M108.789 20.2812C109.807 20.2812 110.632 19.4558 110.632 18.4375C110.632 17.4192 109.807 16.5938 108.789 16.5938C107.77 16.5938 106.945 17.4192 106.945 18.4375C106.945 19.4558 107.77 20.2812 108.789 20.2812Z" fill="#7B60ED"/>
<path d="M3.69482 23.9688C4.7131 23.9688 5.53857 23.1433 5.53857 22.125C5.53857 21.1067 4.7131 20.2812 3.69482 20.2812C2.67655 20.2812 1.85107 21.1067 1.85107 22.125C1.85107 23.1433 2.67655 23.9688 3.69482 23.9688Z" fill="#7B60ED"/>
<path d="M23.9761 3.6875C24.9943 3.6875 25.8198 2.86203 25.8198 1.84375C25.8198 0.825475 24.9943 0 23.9761 0C22.9578 0 22.1323 0.825475 22.1323 1.84375C22.1323 2.86203 22.9578 3.6875 23.9761 3.6875Z" fill="#7B60ED"/>
<path d="M59.0073 9.21875C60.0256 9.21875 60.8511 8.39328 60.8511 7.375C60.8511 6.35672 60.0256 5.53125 59.0073 5.53125C57.989 5.53125 57.1636 6.35672 57.1636 7.375C57.1636 8.39328 57.989 9.21875 59.0073 9.21875Z" fill="#7B60ED"/>
<path d="M84.8198 9.21875C85.8381 9.21875 86.6636 8.39328 86.6636 7.375C86.6636 6.35672 85.8381 5.53125 84.8198 5.53125C83.8015 5.53125 82.9761 6.35672 82.9761 7.375C82.9761 8.39328 83.8015 9.21875 84.8198 9.21875Z" fill="#7B60ED"/>
</svg>
