<svg width="118" height="118" viewBox="0 0 118 118" fill="none" xmlns="http://www.w3.org/2000/svg">
<g clip-path="url(#clip0_103_212)">
<path d="M58.1518 48.6381L76.1652 44.6556C76.4074 44.6023 76.6366 44.5019 76.8399 44.36C77.0432 44.2182 77.2166 44.0376 77.3502 43.8288C77.4837 43.6199 77.5748 43.3868 77.6182 43.1427C77.6617 42.8986 77.6566 42.6484 77.6034 42.4062C77.5501 42.1641 77.4497 41.9348 77.3078 41.7315C77.1659 41.5282 76.9854 41.3548 76.7765 41.2213C76.5677 41.0878 76.3345 40.9967 76.0904 40.9532C75.8464 40.9098 75.5961 40.9148 75.354 40.9681L57.359 44.969C56.9054 45.0961 56.5176 45.3921 56.2753 45.796C56.033 46.2 55.9545 46.6814 56.056 47.1414C56.1574 47.6015 56.4311 48.0052 56.8208 48.2698C57.2106 48.5344 57.6868 48.6398 58.1518 48.5644V48.6381Z" fill="#EE7231"/>
<path d="M60.5671 52.2703L40.2858 59.6453C39.3989 59.9712 38.4327 60.0132 37.5209 59.7654C36.6092 59.5176 35.797 58.9924 35.1971 58.2625C34.9389 57.9675 35.6211 58.7972 23.2311 43.8813C22.7027 43.3317 22.2935 42.6787 22.0294 41.9635C21.7653 41.2483 21.652 40.4861 21.6964 39.725C21.7409 38.9638 21.9422 38.2201 22.2878 37.5405C22.6334 36.8609 23.1158 36.26 23.7046 35.7757C24.2934 35.2913 24.9761 34.934 25.7096 34.726C26.4431 34.5181 27.2118 34.464 27.9672 34.5672C28.7226 34.6705 29.4485 34.9288 30.0994 35.3259C30.7502 35.723 31.3119 36.2504 31.7492 36.875C32.2655 37.5572 31.1408 35.9163 40.5255 49.7813L57.4327 43.6231C58.5721 43.2471 59.8133 43.3302 60.8925 43.8548C61.9716 44.3794 62.8037 45.3041 63.2118 46.4325C63.6199 47.5608 63.572 48.8039 63.0781 49.8974C62.5843 50.991 61.6834 51.8489 60.5671 52.2888V52.2703Z" fill="#D86113"/>
<path d="M65.6189 31.2147H65.5083C59.9156 35.443 54.3844 39.7451 48.9146 44.1209C48.0301 44.8268 46.9072 45.1637 45.7802 45.0613C45.2086 45.0613 46.4624 45.0613 41.1708 44.7478L41.2814 47.5134C33.2611 35.6028 33.6668 36.1559 33.3349 35.7872C32.6547 34.8945 31.7754 34.1729 30.7671 33.68C29.7588 33.187 28.6494 32.9363 27.5271 32.9478C26.1245 32.9455 24.7503 33.3433 23.5657 34.0944C22.3812 34.8455 21.4354 35.9188 20.8393 37.1884C20.2432 38.4581 20.0215 39.8714 20.2002 41.2625C20.3789 42.6537 20.9507 43.9651 21.8483 45.0428L33.8143 59.4241C34.67 60.4274 35.8141 61.1426 37.0908 61.4725C38.3675 61.8025 39.7149 61.731 40.9496 61.2678L41.8346 60.9359L42.4061 73.5656C52.1411 88.5184 52.049 87.9284 52.1596 89.8459L53.4686 112.118C53.5909 113.585 53.1254 115.041 52.1745 116.165C51.2236 117.288 49.8653 117.988 48.3983 118.111C46.9313 118.233 45.4759 117.767 44.3521 116.816C43.2284 115.866 42.5284 114.507 42.4061 113.04L40.3043 92.5563L30.6614 79.2812H25.9046C26.3102 96.9997 26.6052 96.9444 25.5174 98.7881L15.893 115.271C15.1623 116.52 13.9714 117.433 12.5756 117.814C11.1799 118.195 9.69048 118.013 8.42668 117.309C7.16287 116.605 6.22531 115.434 5.815 114.046C5.40469 112.659 5.5543 111.166 6.23176 109.887L14.1783 94.6028C12.9061 76.6447 13.2196 80.4244 12.9061 75.8887C12.9061 75.4278 13.3302 65.4531 14.2705 42.4062C14.3806 39.6381 15.3458 36.9721 17.0331 34.7749C18.7205 32.5777 21.0472 30.9573 23.6932 30.1366C26.3392 29.316 29.1745 29.3353 31.809 30.192C34.4436 31.0487 36.748 32.7006 38.4052 34.9206C40.5255 35.2341 42.6458 35.5659 44.7846 35.8425C49.861 31.9338 54.8883 27.9943 59.8665 24.0241C60.3345 23.612 60.8813 23.2991 61.4738 23.1045C62.0662 22.9098 62.692 22.8374 63.3133 22.8917C63.9345 22.9459 64.5383 23.1256 65.0881 23.42C65.6379 23.7143 66.1222 24.1172 66.5118 24.6041C66.9013 25.0911 67.188 25.652 67.3545 26.253C67.521 26.854 67.5638 27.4825 67.4803 28.1005C67.3969 28.7185 67.1889 29.3132 66.8689 29.8484C66.549 30.3837 66.1237 30.8485 65.6189 31.2147Z" fill="#D86113"/>
<path d="M27.6562 25.8125C34.7842 25.8125 40.5625 20.0342 40.5625 12.9062C40.5625 5.77833 34.7842 0 27.6562 0C20.5283 0 14.75 5.77833 14.75 12.9062C14.75 20.0342 20.5283 25.8125 27.6562 25.8125Z" fill="#D86113"/>
<path d="M112.469 112.469H64.5312V64.5312C64.5312 63.0643 65.114 61.6574 66.1513 60.6201C67.1886 59.5828 68.5955 59 70.0625 59H106.938C108.404 59 109.811 59.5828 110.849 60.6201C111.886 61.6574 112.469 63.0643 112.469 64.5312V112.469Z" fill="#A995FF"/>
<path d="M79.2812 53.4688H97.7188C98.6967 53.4688 99.6347 53.8573 100.326 54.5488C101.018 55.2403 101.406 56.1783 101.406 57.1562V59H75.5938V57.1562C75.5938 56.1783 75.9823 55.2403 76.6738 54.5488C77.3653 53.8573 78.3033 53.4688 79.2812 53.4688Z" fill="#0C3798"/>
<path d="M69.9263 42.2734L105.916 34.3084L106.713 37.9074C107.135 39.8164 106.782 41.8151 105.731 43.4637C104.68 45.1123 103.017 46.2759 101.108 46.6984L79.5138 51.4774C77.6047 51.8999 75.6061 51.5467 73.9574 50.4956C72.3088 49.4444 71.1453 47.7814 70.7228 45.8724L69.9263 42.2734Z" fill="#F8CF6D"/>
<path d="M64.5312 112.469H112.469V114.312C112.469 115.29 112.08 116.228 111.389 116.92C110.697 117.611 109.759 118 108.781 118H68.2188C67.2408 118 66.3028 117.611 65.6113 116.92C64.9198 116.228 64.5312 115.29 64.5312 114.312V112.469Z" fill="white"/>
<path d="M75.5938 68.2188H101.406V71.9062H75.5938V68.2188Z" fill="white"/>
<path d="M74.506 11.4313L67.7578 8.42594C67.5363 8.32772 67.2976 8.27414 67.0554 8.26825C66.8131 8.26235 66.5721 8.30427 66.346 8.3916C66.12 8.47893 65.9134 8.60997 65.7381 8.7772C65.5627 8.94444 65.422 9.14461 65.3241 9.36625L63.8306 12.7403C63.3653 13.7924 63.2395 14.9634 63.4708 16.0902C63.7021 17.2171 64.2791 18.2439 65.1213 19.0275C64.8263 19.4516 65.8035 17.3681 57.4328 36.1191C57.3155 36.3417 57.245 36.5861 57.2257 36.837C57.2063 37.088 57.2386 37.3402 57.3204 37.5783C57.4023 37.8163 57.532 38.035 57.7016 38.221C57.8712 38.407 58.0771 38.5562 58.3066 38.6596C58.5361 38.763 58.7843 38.8183 59.036 38.8222C59.2876 38.826 59.5374 38.7782 59.7699 38.6819C60.0024 38.5855 60.2128 38.4425 60.3879 38.2618C60.5631 38.081 60.6994 37.8664 60.7885 37.6309C69.2882 18.6034 68.1635 21.0372 68.3847 20.4656C69.5275 20.5679 70.6737 20.3123 71.6647 19.7342C72.6558 19.1561 73.4425 18.2841 73.916 17.2391L75.4094 13.865C75.6101 13.4222 75.6278 12.918 75.4586 12.4622C75.2894 12.0064 74.947 11.6358 74.506 11.4313Z" fill="#D86113"/>
<path d="M96.9257 29.7397L95.2478 31.1594L78.8938 36.5063H74.9297C74.7096 36.1324 74.5757 35.714 74.5379 35.2818C74.5001 34.8495 74.5594 34.4143 74.7114 34.0079C74.8633 33.6014 75.1042 33.2341 75.4163 32.9327C75.7284 32.6312 76.1039 32.4033 76.5153 32.2656L93.1091 26.7344C93.5661 26.5786 94.0548 26.5396 94.5307 26.6209C95.0066 26.7022 95.4547 26.9013 95.834 27.2C96.2133 27.4987 96.5119 27.8875 96.7026 28.3311C96.8933 28.7747 96.9699 29.2589 96.9257 29.7397Z" fill="#F8CF6D"/>
<path d="M96.9261 29.7397C96.8803 30.3075 96.6689 30.8494 96.3183 31.2983C95.9677 31.7473 95.4931 32.0836 94.9533 32.2656L78.3596 37.7969C77.7266 38.0068 77.0407 37.9932 76.4165 37.7583C75.7924 37.5234 75.2677 37.0814 74.9302 36.5062L96.9261 29.7397Z" fill="#D86113"/>
<path d="M99.5625 22.125C100.581 22.125 101.406 21.2995 101.406 20.2812C101.406 19.263 100.581 18.4375 99.5625 18.4375C98.5442 18.4375 97.7188 19.263 97.7188 20.2812C97.7188 21.2995 98.5442 22.125 99.5625 22.125Z" fill="#D86113"/>
<path d="M70.0625 38.7188C71.0808 38.7188 71.9062 37.8933 71.9062 36.875C71.9062 35.8567 71.0808 35.0312 70.0625 35.0312C69.0442 35.0312 68.2188 35.8567 68.2188 36.875C68.2188 37.8933 69.0442 38.7188 70.0625 38.7188Z" fill="#D86113"/>
<path d="M77.4375 25.8125C78.4558 25.8125 79.2812 24.987 79.2812 23.9688C79.2812 22.9505 78.4558 22.125 77.4375 22.125C76.4192 22.125 75.5938 22.9505 75.5938 23.9688C75.5938 24.987 76.4192 25.8125 77.4375 25.8125Z" fill="#F8CF6D"/>
<path d="M90.3438 22.125C91.362 22.125 92.1875 21.2995 92.1875 20.2812C92.1875 19.263 91.362 18.4375 90.3438 18.4375C89.3255 18.4375 88.5 19.263 88.5 20.2812C88.5 21.2995 89.3255 22.125 90.3438 22.125Z" fill="#F8CF6D"/>
<path d="M101.406 29.5C101.04 29.5021 100.681 29.3951 100.376 29.1927C100.071 28.9902 99.8331 28.7015 99.6927 28.3633C99.5523 28.025 99.5157 27.6527 99.5878 27.2936C99.6598 26.9345 99.8371 26.605 100.097 26.3472L101.941 24.5034C102.288 24.1562 102.759 23.9612 103.25 23.9612C103.741 23.9612 104.212 24.1562 104.559 24.5034C104.906 24.8506 105.101 25.3215 105.101 25.8125C105.101 26.3035 104.906 26.7744 104.559 27.1215C102.605 29.0759 102.365 29.5 101.406 29.5Z" fill="#F8CF6D"/>
<path d="M82.9685 14.75C81.9913 14.75 81.7332 14.2706 79.8157 12.3715C79.4685 12.0244 79.2734 11.5535 79.2734 11.0625C79.2734 10.5715 79.4685 10.1006 79.8157 9.75341C80.1629 9.40623 80.6337 9.21118 81.1247 9.21118C81.6157 9.21118 82.0866 9.40623 82.4338 9.75341L84.2775 11.5972C84.5376 11.855 84.7149 12.1845 84.7869 12.5436C84.859 12.9027 84.8224 13.275 84.682 13.6133C84.5416 13.9515 84.3036 14.2402 83.9984 14.4427C83.6932 14.6451 83.3347 14.7521 82.9685 14.75Z" fill="#D86113"/>
</g>
<defs>
<clipPath id="clip0_103_212">
<rect width="118" height="118" fill="white"/>
</clipPath>
</defs>
</svg>
