<svg width="171" height="48" viewBox="0 0 171 48" fill="none" xmlns="http://www.w3.org/2000/svg">
<path d="M35 24C35 20.3146 33.8365 16.7233 31.6754 13.738C29.5143 10.7528 26.4659 8.526 22.9648 7.37514C19.4637 6.22429 15.6887 6.20812 12.1778 7.32893C8.66701 8.44975 5.59964 10.6503 3.41304 13.617C1.22644 16.5836 0.0322175 20.1648 0.000642306 23.8501C-0.0309329 27.5353 1.10175 31.1365 3.2372 34.1401C5.37265 37.1438 8.40186 39.3966 11.893 40.5774C15.3841 41.7582 19.1588 41.8068 22.6791 40.7161L17.5 24H35Z" fill="#A995FF"/>
<path d="M44.5284 39V9.90909H63.7898V14.9801H50.679V21.9119H62.5114V26.983H50.679V39H44.5284ZM73.8643 9.90909V39H67.8132V9.90909H73.8643ZM88.6548 39.4261C86.4105 39.4261 84.4787 38.9716 82.8594 38.0625C81.2495 37.1439 80.009 35.8466 79.1378 34.1705C78.2666 32.4848 77.831 30.4915 77.831 28.1903C77.831 25.946 78.2666 23.9763 79.1378 22.2812C80.009 20.5862 81.2353 19.2652 82.8168 18.3182C84.4077 17.3712 86.2732 16.8977 88.4134 16.8977C89.8527 16.8977 91.1927 17.1297 92.4332 17.5938C93.6832 18.0483 94.7723 18.7348 95.7003 19.6534C96.6378 20.572 97.367 21.7273 97.8878 23.1193C98.4086 24.5019 98.669 26.1212 98.669 27.9773V29.6392H80.2457V25.8892H92.973C92.973 25.018 92.7836 24.2462 92.4048 23.5739C92.026 22.9015 91.5005 22.3759 90.8281 21.9972C90.1652 21.6089 89.3935 21.4148 88.5128 21.4148C87.5942 21.4148 86.7798 21.6278 86.0696 22.054C85.3688 22.4706 84.8196 23.0341 84.4219 23.7443C84.0241 24.4451 83.8205 25.2263 83.8111 26.0881V29.6534C83.8111 30.733 84.0099 31.6657 84.4077 32.4517C84.8149 33.2377 85.3878 33.8438 86.1264 34.2699C86.8651 34.696 87.741 34.9091 88.7543 34.9091C89.4266 34.9091 90.0421 34.8144 90.6009 34.625C91.1596 34.4356 91.6378 34.1515 92.0355 33.7727C92.4332 33.3939 92.7363 32.9299 92.9446 32.3807L98.5412 32.75C98.2571 34.0947 97.6747 35.2689 96.794 36.2727C95.9228 37.267 94.7959 38.0436 93.4134 38.6023C92.0402 39.1515 90.4541 39.4261 88.6548 39.4261ZM112.561 39.4261C110.317 39.4261 108.385 38.9716 106.766 38.0625C105.156 37.1439 103.915 35.8466 103.044 34.1705C102.173 32.4848 101.737 30.4915 101.737 28.1903C101.737 25.946 102.173 23.9763 103.044 22.2812C103.915 20.5862 105.142 19.2652 106.723 18.3182C108.314 17.3712 110.179 16.8977 112.32 16.8977C113.759 16.8977 115.099 17.1297 116.339 17.5938C117.589 18.0483 118.679 18.7348 119.607 19.6534C120.544 20.572 121.273 21.7273 121.794 23.1193C122.315 24.5019 122.575 26.1212 122.575 27.9773V29.6392H104.152V25.8892H116.879C116.879 25.018 116.69 24.2462 116.311 23.5739C115.932 22.9015 115.407 22.3759 114.734 21.9972C114.071 21.6089 113.3 21.4148 112.419 21.4148C111.5 21.4148 110.686 21.6278 109.976 22.054C109.275 22.4706 108.726 23.0341 108.328 23.7443C107.93 24.4451 107.727 25.2263 107.717 26.0881V29.6534C107.717 30.733 107.916 31.6657 108.314 32.4517C108.721 33.2377 109.294 33.8438 110.033 34.2699C110.771 34.696 111.647 34.9091 112.661 34.9091C113.333 34.9091 113.948 34.8144 114.507 34.625C115.066 34.4356 115.544 34.1515 115.942 33.7727C116.339 33.3939 116.643 32.9299 116.851 32.3807L122.447 32.75C122.163 34.0947 121.581 35.2689 120.7 36.2727C119.829 37.267 118.702 38.0436 117.32 38.6023C115.946 39.1515 114.36 39.4261 112.561 39.4261ZM126.411 39V35.392L137.092 22.1676V22.0114H126.78V17.1818H144.379V21.1165L134.351 34.0142V34.1705H144.749V39H126.411ZM158.609 39.4261C156.402 39.4261 154.494 38.9574 152.884 38.0199C151.284 37.0729 150.048 35.7566 149.177 34.071C148.306 32.3759 147.87 30.411 147.87 28.1761C147.87 25.9223 148.306 23.9527 149.177 22.267C150.048 20.572 151.284 19.2557 152.884 18.3182C154.494 17.3712 156.402 16.8977 158.609 16.8977C160.815 16.8977 162.719 17.3712 164.319 18.3182C165.929 19.2557 167.169 20.572 168.04 22.267C168.912 23.9527 169.347 25.9223 169.347 28.1761C169.347 30.411 168.912 32.3759 168.04 34.071C167.169 35.7566 165.929 37.0729 164.319 38.0199C162.719 38.9574 160.815 39.4261 158.609 39.4261ZM158.637 34.7386C159.641 34.7386 160.479 34.4545 161.151 33.8864C161.824 33.3087 162.33 32.5227 162.671 31.5284C163.022 30.5341 163.197 29.4025 163.197 28.1335C163.197 26.8646 163.022 25.733 162.671 24.7386C162.33 23.7443 161.824 22.9583 161.151 22.3807C160.479 21.803 159.641 21.5142 158.637 21.5142C157.624 21.5142 156.772 21.803 156.08 22.3807C155.398 22.9583 154.882 23.7443 154.532 24.7386C154.191 25.733 154.021 26.8646 154.021 28.1335C154.021 29.4025 154.191 30.5341 154.532 31.5284C154.882 32.5227 155.398 33.3087 156.08 33.8864C156.772 34.4545 157.624 34.7386 158.637 34.7386Z" fill="black"/>
</svg>
