<svg width="194" height="72" viewBox="0 0 194 72" fill="none" xmlns="http://www.w3.org/2000/svg">
<rect width="72" height="72" rx="16" fill="#E7E7E7"/>
<path d="M36 17C30.9609 17 26.1282 19.0018 22.565 22.565C19.0018 26.1282 17 30.9609 17 36C17 41.0391 19.0018 45.8718 22.565 49.435C26.1282 52.9982 30.9609 55 36 55L36 36V17Z" fill="#7B60ED"/>
<path d="M36 55C41.0391 55 45.8718 52.9982 49.435 49.435C52.9982 45.8718 55 41.0391 55 36C55 30.9609 52.9982 26.1282 49.435 22.565C45.8718 19.0018 41.0391 17 36 17L36 36L36 55Z" fill="white"/>
<path d="M91.296 22V9.4H99.144V10.876H93.096V14.962H98.154V16.402H93.096V22H91.296ZM104.68 22.216C103.828 22.216 103.06 22.024 102.376 21.64C101.704 21.244 101.17 20.692 100.774 19.984C100.39 19.264 100.198 18.436 100.198 17.5C100.198 16.552 100.396 15.724 100.792 15.016C101.188 14.308 101.728 13.756 102.412 13.36C103.096 12.964 103.858 12.766 104.698 12.766C105.562 12.766 106.33 12.964 107.002 13.36C107.686 13.756 108.22 14.308 108.604 15.016C109 15.712 109.198 16.54 109.198 17.5C109.198 18.448 109 19.276 108.604 19.984C108.208 20.692 107.668 21.244 106.984 21.64C106.3 22.024 105.532 22.216 104.68 22.216ZM104.68 20.668C105.16 20.668 105.604 20.554 106.012 20.326C106.42 20.086 106.744 19.732 106.984 19.264C107.236 18.784 107.362 18.196 107.362 17.5C107.362 16.792 107.236 16.204 106.984 15.736C106.744 15.268 106.42 14.914 106.012 14.674C105.616 14.434 105.178 14.314 104.698 14.314C104.242 14.314 103.804 14.434 103.384 14.674C102.976 14.914 102.646 15.268 102.394 15.736C102.154 16.204 102.034 16.792 102.034 17.5C102.034 18.196 102.154 18.784 102.394 19.264C102.646 19.732 102.97 20.086 103.366 20.326C103.774 20.554 104.212 20.668 104.68 20.668ZM111.298 22V12.982H112.918L113.08 14.692C113.284 14.296 113.542 13.954 113.854 13.666C114.178 13.378 114.556 13.156 114.988 13C115.42 12.844 115.912 12.766 116.464 12.766V14.674H115.888C115.504 14.674 115.138 14.722 114.79 14.818C114.454 14.914 114.16 15.07 113.908 15.286C113.656 15.49 113.458 15.778 113.314 16.15C113.17 16.522 113.098 16.99 113.098 17.554V22H111.298ZM125.748 22V10.876H122.004V9.4H131.274V10.876H127.548V22H125.748ZM135.53 22.216C134.654 22.216 133.88 22.024 133.208 21.64C132.536 21.244 132.008 20.692 131.624 19.984C131.252 19.276 131.066 18.454 131.066 17.518C131.066 16.57 131.252 15.742 131.624 15.034C131.996 14.326 132.518 13.774 133.19 13.378C133.874 12.97 134.66 12.766 135.548 12.766C136.436 12.766 137.198 12.964 137.834 13.36C138.47 13.756 138.962 14.278 139.31 14.926C139.658 15.574 139.832 16.288 139.832 17.068C139.832 17.188 139.832 17.32 139.832 17.464C139.832 17.596 139.826 17.746 139.814 17.914H132.38V16.654H138.032C138.008 15.91 137.756 15.328 137.276 14.908C136.808 14.476 136.226 14.26 135.53 14.26C135.05 14.26 134.6 14.374 134.18 14.602C133.772 14.818 133.442 15.136 133.19 15.556C132.95 15.976 132.83 16.51 132.83 17.158V17.662C132.83 18.322 132.95 18.88 133.19 19.336C133.442 19.792 133.772 20.14 134.18 20.38C134.588 20.608 135.032 20.722 135.512 20.722C136.088 20.722 136.562 20.596 136.934 20.344C137.318 20.08 137.6 19.732 137.78 19.3H139.58C139.424 19.852 139.16 20.35 138.788 20.794C138.416 21.226 137.954 21.574 137.402 21.838C136.862 22.09 136.238 22.216 135.53 22.216ZM144.837 22.216C144.093 22.216 143.475 22.09 142.983 21.838C142.491 21.586 142.125 21.25 141.885 20.83C141.645 20.41 141.525 19.954 141.525 19.462C141.525 18.862 141.675 18.352 141.975 17.932C142.287 17.512 142.731 17.188 143.307 16.96C143.895 16.732 144.591 16.618 145.395 16.618H147.753C147.753 16.09 147.675 15.658 147.519 15.322C147.363 14.974 147.129 14.716 146.817 14.548C146.505 14.368 146.121 14.278 145.665 14.278C145.125 14.278 144.657 14.41 144.261 14.674C143.865 14.926 143.625 15.31 143.541 15.826H141.741C141.813 15.178 142.029 14.632 142.389 14.188C142.761 13.732 143.235 13.384 143.811 13.144C144.387 12.892 145.005 12.766 145.665 12.766C146.505 12.766 147.213 12.916 147.789 13.216C148.365 13.516 148.803 13.942 149.103 14.494C149.403 15.034 149.553 15.682 149.553 16.438V22H147.987L147.843 20.47C147.723 20.71 147.567 20.938 147.375 21.154C147.195 21.37 146.979 21.556 146.727 21.712C146.487 21.868 146.205 21.988 145.881 22.072C145.569 22.168 145.221 22.216 144.837 22.216ZM145.179 20.758C145.563 20.758 145.911 20.68 146.223 20.524C146.535 20.368 146.799 20.158 147.015 19.894C147.243 19.618 147.411 19.312 147.519 18.976C147.639 18.64 147.705 18.286 147.717 17.914V17.878H145.575C145.059 17.878 144.639 17.944 144.315 18.076C143.991 18.196 143.757 18.37 143.613 18.598C143.481 18.814 143.415 19.06 143.415 19.336C143.415 19.624 143.481 19.876 143.613 20.092C143.757 20.308 143.961 20.476 144.225 20.596C144.489 20.704 144.807 20.758 145.179 20.758ZM151.833 22V12.982H153.453L153.579 14.26C153.867 13.792 154.251 13.426 154.731 13.162C155.211 12.898 155.751 12.766 156.351 12.766C156.807 12.766 157.221 12.832 157.593 12.964C157.977 13.084 158.313 13.27 158.601 13.522C158.889 13.774 159.123 14.086 159.303 14.458C159.627 13.93 160.059 13.516 160.599 13.216C161.151 12.916 161.739 12.766 162.363 12.766C163.095 12.766 163.725 12.916 164.253 13.216C164.781 13.504 165.183 13.942 165.459 14.53C165.747 15.118 165.891 15.85 165.891 16.726V22H164.109V16.906C164.109 16.054 163.935 15.412 163.587 14.98C163.239 14.536 162.735 14.314 162.075 14.314C161.631 14.314 161.235 14.428 160.887 14.656C160.539 14.884 160.263 15.22 160.059 15.664C159.855 16.096 159.753 16.63 159.753 17.266V22H157.971V16.906C157.971 16.054 157.797 15.412 157.449 14.98C157.101 14.536 156.597 14.314 155.937 14.314C155.505 14.314 155.109 14.428 154.749 14.656C154.401 14.884 154.125 15.22 153.921 15.664C153.729 16.096 153.633 16.63 153.633 17.266V22H151.833Z" fill="#6F6C90"/>
<path d="M91.608 52V35.2H97.92C99.28 35.2 100.4 35.432 101.28 35.896C102.176 36.344 102.84 36.96 103.272 37.744C103.72 38.528 103.944 39.416 103.944 40.408C103.944 41.32 103.728 42.168 103.296 42.952C102.88 43.736 102.224 44.376 101.328 44.872C100.448 45.352 99.312 45.592 97.92 45.592H94.848V52H91.608ZM94.848 42.976H97.728C98.752 42.976 99.488 42.744 99.936 42.28C100.4 41.816 100.632 41.192 100.632 40.408C100.632 39.592 100.4 38.96 99.936 38.512C99.488 38.064 98.752 37.84 97.728 37.84H94.848V42.976ZM106.232 52V40.096H109.112L109.424 42.328C109.712 41.816 110.064 41.376 110.48 41.008C110.912 40.624 111.4 40.328 111.944 40.12C112.504 39.912 113.112 39.808 113.768 39.808V43.24H112.88C112.384 43.24 111.92 43.296 111.488 43.408C111.072 43.52 110.712 43.704 110.408 43.96C110.104 44.216 109.872 44.568 109.712 45.016C109.552 45.448 109.472 46 109.472 46.672V52H106.232ZM121.509 52.288C120.293 52.288 119.213 52.032 118.269 51.52C117.341 51.008 116.613 50.288 116.085 49.36C115.557 48.432 115.293 47.368 115.293 46.168C115.293 44.92 115.549 43.824 116.061 42.88C116.589 41.92 117.317 41.168 118.245 40.624C119.189 40.08 120.285 39.808 121.533 39.808C122.717 39.808 123.757 40.064 124.653 40.576C125.565 41.088 126.269 41.792 126.765 42.688C127.277 43.568 127.533 44.568 127.533 45.688C127.533 45.848 127.533 46.032 127.533 46.24C127.533 46.432 127.517 46.632 127.485 46.84H117.621V44.848H124.245C124.197 44.128 123.917 43.544 123.405 43.096C122.909 42.648 122.285 42.424 121.533 42.424C120.973 42.424 120.461 42.552 119.997 42.808C119.533 43.048 119.165 43.416 118.893 43.912C118.621 44.408 118.485 45.032 118.485 45.784V46.48C118.485 47.12 118.613 47.68 118.869 48.16C119.125 48.64 119.477 49.008 119.925 49.264C120.389 49.52 120.909 49.648 121.485 49.648C122.077 49.648 122.573 49.52 122.973 49.264C123.373 48.992 123.677 48.648 123.885 48.232H127.197C126.957 48.984 126.573 49.672 126.045 50.296C125.517 50.904 124.869 51.392 124.101 51.76C123.333 52.112 122.469 52.288 121.509 52.288ZM130.115 52V40.096H132.971L133.235 41.704C133.619 41.112 134.123 40.648 134.747 40.312C135.387 39.976 136.123 39.808 136.955 39.808C137.563 39.808 138.107 39.888 138.587 40.048C139.083 40.192 139.515 40.424 139.883 40.744C140.267 41.048 140.587 41.432 140.843 41.896C141.291 41.256 141.875 40.752 142.595 40.384C143.331 40 144.131 39.808 144.995 39.808C146.035 39.808 146.915 40.024 147.635 40.456C148.355 40.872 148.899 41.488 149.267 42.304C149.635 43.12 149.819 44.128 149.819 45.328V52H146.603V45.616C146.603 44.624 146.411 43.864 146.027 43.336C145.659 42.808 145.075 42.544 144.275 42.544C143.731 42.544 143.259 42.68 142.859 42.952C142.459 43.208 142.147 43.584 141.923 44.08C141.699 44.56 141.587 45.152 141.587 45.856V52H138.371V45.616C138.371 44.624 138.179 43.864 137.795 43.336C137.411 42.808 136.803 42.544 135.971 42.544C135.459 42.544 135.003 42.68 134.603 42.952C134.219 43.208 133.915 43.584 133.691 44.08C133.467 44.56 133.355 45.152 133.355 45.856V52H130.115ZM152.851 52V40.096H156.091V52H152.851ZM154.459 38.368C153.883 38.368 153.403 38.2 153.019 37.864C152.651 37.512 152.467 37.072 152.467 36.544C152.467 36.016 152.651 35.584 153.019 35.248C153.403 34.896 153.883 34.72 154.459 34.72C155.051 34.72 155.531 34.896 155.899 35.248C156.283 35.584 156.475 36.016 156.475 36.544C156.475 37.072 156.283 37.512 155.899 37.864C155.531 38.2 155.051 38.368 154.459 38.368ZM163.758 52.288C162.766 52.288 161.918 52.08 161.214 51.664C160.526 51.248 159.998 50.632 159.63 49.816C159.278 48.984 159.102 47.968 159.102 46.768V40.096H162.318V46.48C162.318 47.472 162.518 48.232 162.918 48.76C163.318 49.288 163.95 49.552 164.814 49.552C165.374 49.552 165.87 49.424 166.302 49.168C166.734 48.896 167.07 48.52 167.31 48.04C167.55 47.544 167.67 46.944 167.67 46.24V40.096H170.91V52H168.054L167.814 50.008C167.43 50.696 166.894 51.248 166.206 51.664C165.518 52.08 164.702 52.288 163.758 52.288ZM174.037 52V40.096H176.893L177.157 41.704C177.541 41.112 178.045 40.648 178.669 40.312C179.309 39.976 180.045 39.808 180.877 39.808C181.485 39.808 182.029 39.888 182.509 40.048C183.005 40.192 183.437 40.424 183.805 40.744C184.189 41.048 184.509 41.432 184.765 41.896C185.213 41.256 185.797 40.752 186.517 40.384C187.253 40 188.053 39.808 188.917 39.808C189.957 39.808 190.837 40.024 191.557 40.456C192.277 40.872 192.821 41.488 193.189 42.304C193.557 43.12 193.741 44.128 193.741 45.328V52H190.525V45.616C190.525 44.624 190.333 43.864 189.949 43.336C189.581 42.808 188.997 42.544 188.197 42.544C187.653 42.544 187.181 42.68 186.781 42.952C186.381 43.208 186.069 43.584 185.845 44.08C185.621 44.56 185.509 45.152 185.509 45.856V52H182.293V45.616C182.293 44.624 182.101 43.864 181.717 43.336C181.333 42.808 180.725 42.544 179.893 42.544C179.381 42.544 178.925 42.68 178.525 42.952C178.141 43.208 177.837 43.584 177.613 44.08C177.389 44.56 177.277 45.152 177.277 45.856V52H174.037Z" fill="#170F49"/>
</svg>
